<svg xmlns="http://www.w3.org/2000/svg" viewBox="0 0 689.95 306.46"><defs><style>.cls-1{fill:#f5f5f5;}.cls-16,.cls-17,.cls-2,.cls-3,.cls-5,.cls-8,.cls-9{fill:none;}.cls-2{stroke:#273a7d;stroke-width:7px;}.cls-16,.cls-17,.cls-2,.cls-3,.cls-8,.cls-9{stroke-miterlimit:10;}.cls-3{stroke:#2eaec9;}.cls-4{fill:#f31d3d;}.cls-6{fill:#0089cb;}.cls-7{fill:#283e7e;}.cls-8{stroke:#0089cb;}.cls-9{stroke:#29b3cb;}.cls-10{fill:#f0b22d;}.cls-11{fill:#7dff00;}.cls-12{fill:#06adeb;}.cls-13{fill:#ff4d4d;}.cls-14{fill:#f62f31;}.cls-15{fill:#020202;}.cls-16,.cls-17{stroke:#000;}.cls-16{stroke-width:3px;}.cls-17{stroke-width:12px;}</style></defs><title>access-denied_illustration</title><g id="smoke"><path class="cls-1" d="M276.33,543s-2.75-15,25.25-15,40.92,4,40.92-12.5-16.75-14.25-20.5-14.25H234.5s-15.5,1.5-15.5-14,20-12,20-12l241.5-.34s18-1.91,18,20.09v51l-24.75,8H291.58S276.33,556.33,276.33,543Z" transform="translate(-219 -387.17)"/><path class="cls-1" d="M616.33,428.5s5.17-14.67-24.17-14.67-52.67.67-52.67.67-10.67-2.33-10.67-14.5S543,387.17,543,387.17H771s13.5,1.5,13.5,13-4.67,14.17-29,14.17-38.17-2.17-38.17,12.17,3.17,14.83,29,14.83h81s14.5-2.33,14.5,13.5c0,0,.83,11.25-11.25,11.25H569L558.17,446s6.5-4.67,19-4.67S616.33,444.67,616.33,428.5Z" transform="translate(-219 -387.17)"/><path class="cls-1" d="M683.44,623.83s5.17,14.67-24.17,14.67-52.67-.67-52.67-.67-10.67,2.33-10.67,14.5,14.17,12.83,14.17,12.83h228s13.5-1.5,13.5-13S846.94,638,822.6,638s-38.17,2.17-38.17-12.17,3.17-14.83,29-14.83h81s14.5,2.33,14.5-13.5c0,0,.83-11.25-11.25-11.25H593l5.67,27.08s33.1-2.33,45.6-2.33S683.44,607.67,683.44,623.83Z" transform="translate(-219 -387.17)"/></g><g id="particles"><circle class="cls-2" cx="466.83" cy="278" r="14.33"/><circle class="cls-3" cx="420.38" cy="298.08" r="7.88"/><path class="cls-4" d="M425,457a6.91,6.91,0,0,1,.87-2.53,9.14,9.14,0,0,1,1.47-1.93,9,9,0,0,1,1.93-1.48,6.84,6.84,0,0,1,2.54-.87,6.84,6.84,0,0,1-.87,2.54,9,9,0,0,1-1.48,1.93,9.14,9.14,0,0,1-1.93,1.47A6.91,6.91,0,0,1,425,457Z" transform="translate(-219 -387.17)"/><path class="cls-5" d="M425,450.19" transform="translate(-219 -387.17)"/><path class="cls-5" d="M430.88,457" transform="translate(-219 -387.17)"/><path class="cls-4" d="M431.81,457a6.91,6.91,0,0,1-2.53-.87,9.14,9.14,0,0,1-1.93-1.47,9,9,0,0,1-1.48-1.93,6.84,6.84,0,0,1-.87-2.54,6.84,6.84,0,0,1,2.54.87,9,9,0,0,1,1.93,1.48,9.14,9.14,0,0,1,1.47,1.93A6.91,6.91,0,0,1,431.81,457Z" transform="translate(-219 -387.17)"/><circle class="cls-6" cx="222.08" cy="78.5" r="2.92"/><circle class="cls-7" cx="192.38" cy="82.08" r="4.5"/><circle class="cls-8" cx="196.88" cy="48.17" r="5.1"/><circle class="cls-9" cx="412.5" cy="96.33" r="8.5"/><path class="cls-10" d="M614.19,503.63a7.11,7.11,0,0,1,.95-2.05,10.5,10.5,0,0,1,1.35-1.65,10.31,10.31,0,0,1,1.65-1.35,7,7,0,0,1,2.06-.94,7,7,0,0,1-.94,2.06,10.31,10.31,0,0,1-1.35,1.65,10.5,10.5,0,0,1-1.65,1.35A7.11,7.11,0,0,1,614.19,503.63Z" transform="translate(-219 -387.17)"/><path class="cls-10" d="M620.19,503.63a7.11,7.11,0,0,1-2.05-.95,10.5,10.5,0,0,1-1.65-1.35,10.31,10.31,0,0,1-1.35-1.65,7,7,0,0,1-.94-2.06,7,7,0,0,1,2.06.94,10.31,10.31,0,0,1,1.65,1.35,10.5,10.5,0,0,1,1.35,1.65A7.11,7.11,0,0,1,620.19,503.63Z" transform="translate(-219 -387.17)"/><path class="cls-11" d="M651.88,643.88a8,8,0,0,1,.78,2.28,12.1,12.1,0,0,1,.22,2.28,11.9,11.9,0,0,1-.21,2.28,7.92,7.92,0,0,1-.79,2.28,7.92,7.92,0,0,1-.79-2.28,11.9,11.9,0,0,1-.21-2.28,12.1,12.1,0,0,1,.22-2.28A8,8,0,0,1,651.88,643.88Z" transform="translate(-219 -387.17)"/><path class="cls-11" d="M647.31,648.44a8,8,0,0,1,2.28-.78,12.11,12.11,0,0,1,2.28-.22,11.89,11.89,0,0,1,2.28.21,7.92,7.92,0,0,1,2.28.79,7.92,7.92,0,0,1-2.28.79,11.89,11.89,0,0,1-2.28.21,12.11,12.11,0,0,1-2.28-.22A8,8,0,0,1,647.31,648.44Z" transform="translate(-219 -387.17)"/><path class="cls-12" d="M587.56,477.06a8.24,8.24,0,0,1,1-3.2,10.43,10.43,0,0,1,1.79-2.4,10.24,10.24,0,0,1,2.4-1.79,8.15,8.15,0,0,1,3.21-1,8.15,8.15,0,0,1-1,3.21,10.24,10.24,0,0,1-1.79,2.4,10.43,10.43,0,0,1-2.4,1.79A8.24,8.24,0,0,1,587.56,477.06Z" transform="translate(-219 -387.17)"/><path class="cls-12" d="M595.94,477.06a8.24,8.24,0,0,1-3.2-1,10.43,10.43,0,0,1-2.4-1.79,10.24,10.24,0,0,1-1.79-2.4,8.15,8.15,0,0,1-1-3.21,8.15,8.15,0,0,1,3.21,1,10.24,10.24,0,0,1,2.4,1.79,10.43,10.43,0,0,1,1.79,2.4A8.24,8.24,0,0,1,595.94,477.06Z" transform="translate(-219 -387.17)"/></g><g id="Camada_4" data-name="Camada 4"><path class="cls-13" d="M481.67,509H459.33s-8.67-1-8.67,8.67v101s-1.5,10.42,8.83,10.42c0,0,62.5,20.58,66.67,19.75s72.92-18.42,74-19.5,7.5-1.83,7.5-7.5V516.67s-1.23-7.7-7.7-7.7Z" transform="translate(-219 -387.17)"/><polygon class="cls-14" points="367.5 121.81 366 231.33 380.42 226.43 380.97 121.8 367.5 121.81"/><path class="cls-15" d="M509.25,590.25s2-8.25,9.63-8.25,10.25,8.25,10.25,8.25,1.88-12.12-9.94-12.12S509.25,590.25,509.25,590.25Z" transform="translate(-219 -387.17)"/><path class="cls-15" d="M502.5,564.88s3.88,3.13,6-2.62c0,0,4.13,1.25,4.13,6.88s-8,4.63-9.37,3.25S500.56,566.81,502.5,564.88Z" transform="translate(-219 -387.17)"/><path class="cls-15" d="M528,562.25s3.75,5.13,6.38,2.5,2.85,11.77-5.14,8.7S526.56,563.69,528,562.25Z" transform="translate(-219 -387.17)"/><path class="cls-13" d="M440.5,546.19" transform="translate(-219 -387.17)"/><ellipse cx="221.5" cy="155.08" rx="2.38" ry="3.38"/><path class="cls-16" d="M440.5,530.25V503.5s-.37-4.87,7.75-6.75H588.88s9.75-1,9.75,13.25v58.75" transform="translate(-219 -387.17)"/><path d="M442,529.61c0,1.77.29,2.39-1.48,2.39s-1.49-.93-1.49-2.91c0-1.77.18-3.51,1.49-3.51S442,527.84,442,529.61Z" transform="translate(-219 -387.17)"/><path d="M600.13,566.94c0,2.42.08,4.38-1.47,4.38-1.83,0-1.51-2-1.51-4.37s.41-4.37,1.51-4.37S600.13,564.52,600.13,566.94Z" transform="translate(-219 -387.17)"/><ellipse cx="379.63" cy="195.96" rx="2.63" ry="5.31"/><path class="cls-16" d="M598.63,596.69v13s0,5.92-8.15,8.15c0,0-65.52,20.69-70.92,20.69s-72.23-20.91-72.23-20.91-6.84-1.43-6.84-11.76V554.67" transform="translate(-219 -387.17)"/><path d="M442,555c0,2.76-.19,5-1.5,5s-1.51-2.24-1.51-5,.2-5,1.51-5S442,552.24,442,555Z" transform="translate(-219 -387.17)"/><path d="M600.1,598.52c0-2.28.21-4.27-1.48-4.27s-1.5,1.74-1.5,4,.05,4.23,1.5,4.23S600.1,600.8,600.1,598.52Z" transform="translate(-219 -387.17)"/><path class="cls-17" d="M562.72,496.75s19.58-75.25-41.67-75.25c-61,0-46,75.23-46,75.23" transform="translate(-219 -387.17)"/></g></svg>