<svg width="35" height="37" viewBox="0 0 35 37" fill="none" xmlns="http://www.w3.org/2000/svg">
<g clip-path="url(#clip0)">
<path d="M24.6116 0.157356C24.8257 0.288564 24.9913 0.492645 25.0815 0.736262C25.1717 0.979878 25.1811 1.24863 25.1081 1.49861L21.1684 15.0314H28.4375C28.6511 15.0313 28.8601 15.0973 29.0386 15.2213C29.2171 15.3454 29.3574 15.5219 29.4421 15.7292C29.5268 15.9366 29.5522 16.1656 29.5151 16.388C29.4781 16.6104 29.3803 16.8165 29.2338 16.9808L11.7338 36.637C11.5644 36.8274 11.3391 36.9515 11.0945 36.9891C10.8499 37.0268 10.6005 36.9757 10.3868 36.8443C10.1732 36.7129 10.008 36.5088 9.91811 36.2654C9.82823 36.022 9.81898 35.7536 9.89188 35.5039L13.8316 21.9689H6.56251C6.34889 21.9689 6.13992 21.9029 5.9614 21.7789C5.78287 21.6549 5.64262 21.4783 5.55793 21.271C5.47325 21.0636 5.44785 20.8346 5.48487 20.6122C5.5219 20.3898 5.61972 20.1837 5.76626 20.0194L23.2663 0.363168C23.4354 0.173079 23.6604 0.0490584 23.9046 0.011272C24.1489 -0.0265144 24.398 0.0241557 24.6116 0.155043V0.157356Z" fill="white"/>
</g>
<defs>
<clipPath id="clip0">
<rect width="35" height="37" fill="white"/>
</clipPath>
</defs>
</svg>
